<svg width="142.739990234375px" height="76.43999023437499px" xmlns="http://www.w3.org/2000/svg" viewBox="178.6300048828125 36.780004882812506 142.739990234375 76.43999023437499" style="background: rgba(0, 0, 0, 0);" preserveAspectRatio="xMidYMid"><defs><filter id="editing-hole" x="-100%" y="-100%" width="300%" height="300%"><feFlood flood-color="#000000" result="black"></feFlood><feMorphology operator="dilate" radius="2" in="SourceGraphic" result="erode"></feMorphology><feGaussianBlur in="erode" stdDeviation="4" result="blur"></feGaussianBlur><feOffset in="blur" dx="2" dy="2" result="offset"></feOffset><feComposite operator="atop" in="offset" in2="black" result="merge"></feComposite><feComposite operator="in" in="merge" in2="SourceGraphic" result="inner-shadow"></feComposite></filter></defs><g filter="url(#editing-hole)"><g transform="translate(205.05624985694885, 90.07999992370605)"><path d="M7.34 0.54L7.34 0.54Q5.90 0.54 4.75 0.17L4.75 0.17L4.75 0.17Q3.59-0.21 2.75-0.91L2.75-0.91L2.75-0.91Q1.90-1.61 1.46-2.58L1.46-2.58L1.46-2.58Q1.01-3.54 1.01-4.72L1.01-4.72L1.01-4.72Q1.01-5.70 1.33-6.57L1.33-6.57L1.33-6.57Q1.64-7.44 2.21-8.09L2.21-8.09L2.21-8.09Q2.78-8.73 3.54-9.09L3.54-9.09L3.54-9.09Q4.31-9.45 5.16-9.45L5.16-9.45L5.16-9.45Q6.21-9.45 6.93-8.92L6.93-8.92L6.93-8.92Q7.65-8.39 7.82-7.47L7.82-7.47L7.82-7.47Q6.25-7.47 5.33-6.64L5.33-6.64L5.33-6.64Q4.89-6.24 4.65-5.67L4.65-5.67L4.65-5.67Q4.41-5.10 4.41-4.41L4.41-4.41L4.41-4.41Q4.41-3.09 5.18-2.32L5.18-2.32L5.18-2.32Q5.95-1.55 7.25-1.55L7.25-1.55L7.25-1.55Q8.03-1.55 8.70-1.84L8.70-1.84L8.70-1.84Q9.38-2.12 9.87-2.62L9.87-2.62L9.87-2.62Q10.37-3.12 10.64-3.82L10.64-3.82L10.64-3.82Q10.91-4.51 10.91-5.30L10.91-5.30L10.91-5.30Q10.91-6.77 9.92-8.35L9.92-8.35L9.92-8.35Q9.52-8.96 9.05-9.56L9.05-9.56L9.05-9.56Q8.57-10.15 7.72-11.13L7.72-11.13L7.72-11.13Q6.96-12.01 6.45-12.66L6.45-12.66L6.45-12.66Q5.93-13.30 5.52-13.97L5.52-13.97L5.52-13.97Q4.53-15.60 4.53-17.17L4.53-17.17L4.53-17.17Q4.53-18.34 5.02-19.34L5.02-19.34L5.02-19.34Q5.52-20.35 6.45-21.09L6.45-21.09L6.45-21.09Q7.37-21.84 8.60-22.25L8.60-22.25L8.60-22.25Q9.83-22.66 11.25-22.66L11.25-22.66L11.25-22.66Q13.67-22.66 15.13-21.52L15.13-21.52L15.13-21.52Q15.83-20.96 16.21-20.19L16.21-20.19L16.21-20.19Q16.58-19.41 16.58-18.46L16.58-18.46L16.58-18.46Q16.58-17.21 15.95-16.42L15.95-16.42L15.95-16.42Q15.66-16.04 15.23-15.83L15.23-15.83L15.23-15.83Q14.79-15.63 14.31-15.63L14.31-15.63L14.31-15.63Q13.18-15.63 12.48-16.57L12.48-16.57L12.48-16.57Q13.05-16.98 13.38-17.66L13.38-17.66L13.38-17.66Q13.71-18.34 13.71-19.12L13.71-19.12L13.71-19.12Q13.71-20.08 13.14-20.65L13.14-20.65L13.14-20.65Q12.57-21.21 11.57-21.21L11.57-21.21L11.57-21.21Q10.97-21.21 10.47-20.99L10.47-20.99L10.47-20.99Q9.96-20.77 9.61-20.36L9.61-20.36L9.61-20.36Q9.24-19.95 9.05-19.39L9.05-19.39L9.05-19.39Q8.85-18.84 8.85-18.18L8.85-18.18L8.85-18.18Q8.85-17.24 9.29-16.38L9.29-16.38L9.29-16.38Q9.73-15.51 10.55-14.58L10.55-14.58L10.55-14.58Q11.28-13.71 12.13-12.86L12.13-12.86L12.13-12.86Q14.11-10.81 14.93-8.86L14.93-8.86L14.93-8.86Q15.41-7.71 15.41-6.31L15.41-6.31L15.41-6.31Q15.41-4.85 14.81-3.60L14.81-3.60L14.81-3.60Q14.21-2.34 13.10-1.42L13.10-1.42L13.10-1.42Q11.98-0.48 10.50 0.03L10.50 0.03L10.50 0.03Q9.02 0.54 7.34 0.54L7.34 0.54ZM21.77 7.50L21.77 7.50Q21.06 7.50 20.46 7.32L20.46 7.32L20.46 7.32Q19.85 7.13 19.41 6.77L19.41 6.77L19.41 6.77Q18.94 6.40 18.68 5.85L18.68 5.85L18.68 5.85Q18.41 5.30 18.41 4.58L18.41 4.58L18.41 4.58Q18.41 2.89 20.01 1.67L20.01 1.67L20.01 1.67Q21.21 0.78 23.31 0.12L23.31 0.12L23.67-1.49L23.67-1.49Q22.79-0.53 21.77-0.13L21.77-0.13L21.77-0.13Q20.98 0.18 20.07 0.18L20.07 0.18L20.07 0.18Q18.63 0.18 17.80-0.67L17.80-0.67L17.80-0.67Q16.86-1.61 16.86-3.41L16.86-3.41L16.86-3.41Q16.86-4.26 17.09-5.38L17.09-5.38L19.13-15L23.45-15L21.30-4.80L21.30-4.80Q21.21-4.44 21.21-4.04L21.21-4.04L21.21-4.04Q21.21-3.47 21.40-3.13L21.40-3.13L21.40-3.13Q21.62-2.72 22.10-2.72L22.10-2.72L22.10-2.72Q22.90-2.72 23.53-3.43L23.53-3.43L23.53-3.43Q24.07-4.03 24.45-5.19L24.45-5.19L26.54-15L30.86-15L27.89-1.08L27.89-1.08Q29.31-1.55 30.16-2.49L30.16-2.49L30.16-2.49Q31.08-3.50 31.67-5.38L31.67-5.38L32.93-5.38L32.93-5.38Q32.12-2.71 30.53-1.26L30.53-1.26L30.53-1.26Q29.36-0.21 27.63 0.23L27.63 0.23L27.17 2.40L27.17 2.40Q26.60 5.27 24.89 6.56L24.89 6.56L24.89 6.56Q23.64 7.50 21.77 7.50L21.77 7.50ZM21.08 5.16L21.08 5.16Q21.53 5.16 22.05 4.50L22.05 4.50L22.05 4.50Q22.54 3.85 22.82 2.49L22.82 2.49L23.00 1.63L23.00 1.63Q21.64 2.14 20.96 2.67L20.96 2.67L20.96 2.67Q20.07 3.34 20.07 4.17L20.07 4.17L20.07 4.17Q20.07 4.57 20.32 4.83L20.32 4.83L20.32 4.83Q20.60 5.16 21.08 5.16L21.08 5.16ZM42.50 0.18L42.50 0.18Q40.63 0.18 39.74-0.88L39.74-0.88L39.74-0.88Q38.96-1.79 38.96-3.21L38.96-3.21L38.96-3.21Q38.96-3.88 39.13-4.78L39.13-4.78L39.13-4.78Q39.30-5.67 39.64-7.08L39.64-7.08L39.64-7.08Q39.98-8.51 40.14-9.37L40.14-9.37L40.14-9.37Q40.31-10.22 40.31-10.85L40.31-10.85L40.31-10.85Q40.31-12.39 39.23-12.39L39.23-12.39L39.23-12.39Q38.47-12.39 37.82-11.59L37.82-11.59L37.82-11.59Q37.28-10.90 36.88-9.62L36.88-9.62L34.85 0L30.53 0L33.71-15L38.03-15L37.71-13.45L37.71-13.45Q38.58-14.43 39.59-14.82L39.59-14.82L39.59-14.82Q40.34-15.12 41.21-15.12L41.21-15.12L41.21-15.12Q42.73-15.12 43.61-14.33L43.61-14.33L43.61-14.33Q44.55-13.46 44.55-11.73L44.55-11.73L44.55-11.73Q44.55-10.69 44.17-9.02L44.17-9.02L44.17-9.02Q44.06-8.54 43.83-7.57L43.83-7.57L43.83-7.57Q43.40-5.95 43.21-4.98L43.21-4.98L43.21-4.98Q43.10-4.37 43.10-3.98L43.10-3.98L43.10-3.98Q43.10-3.38 43.37-3.05L43.37-3.05L43.37-3.05Q43.64-2.72 44.30-2.72L44.30-2.72L44.30-2.72Q45.19-2.72 45.81-3.46L45.81-3.46L45.81-3.46Q46.27-4.01 46.82-5.38L46.82-5.38L48.08-5.38L48.08-5.38Q46.96-2.08 45.26-0.76L45.26-0.76L45.26-0.76Q44.06 0.18 42.50 0.18L42.50 0.18ZM51.11 0.18L51.11 0.18Q48.90 0.18 47.70-0.94L47.70-0.94L47.70-0.94Q46.42-2.12 46.42-4.58L46.42-4.58L46.42-4.58Q46.42-5.51 46.60-6.64L46.60-6.64L46.60-6.64Q46.79-7.78 47.17-8.91L47.17-8.91L47.17-8.91Q48.06-11.65 49.70-13.27L49.70-13.27L49.70-13.27Q51.72-15.26 54.49-15.26L54.49-15.26L54.49-15.26Q56.29-15.26 57.16-14.40L57.16-14.40L57.16-14.40Q57.83-13.71 57.83-12.51L57.83-12.51L57.83-12.51Q57.83-11.46 57.36-10.87L57.36-10.87L57.36-10.87Q56.92-10.33 56.24-10.33L56.24-10.33L56.24-10.33Q55.74-10.33 55.18-10.68L55.18-10.68L55.18-10.68Q55.55-11.63 55.55-12.45L55.55-12.45L55.55-12.45Q55.55-13.02 55.33-13.35L55.33-13.35L55.33-13.35Q55.12-13.68 54.71-13.68L54.71-13.68L54.71-13.68Q53.83-13.68 52.88-12.13L52.88-12.13L52.88-12.13Q52.02-10.75 51.45-8.63L51.45-8.63L51.45-8.63Q50.86-6.55 50.86-4.86L50.86-4.86L50.86-4.86Q50.86-3.40 51.42-2.84L51.42-2.84L51.42-2.84Q51.90-2.34 53.03-2.34L53.03-2.34L53.03-2.34Q54.65-2.34 56.00-3.22L56.00-3.22L56.00-3.22Q56.57-3.59 57.10-4.09L57.10-4.09L57.10-4.09Q57.63-4.60 58.33-5.38L58.33-5.38L59.36-5.38L59.36-5.38Q57.93-2.97 56.09-1.55L56.09-1.55L56.09-1.55Q53.82 0.18 51.11 0.18L51.11 0.18ZM63.34-16.63L63.34-16.63Q62.86-16.63 62.42-16.81L62.42-16.81L62.42-16.81Q61.98-16.99 61.66-17.31L61.66-17.31L61.66-17.31Q61.33-17.62 61.15-18.06L61.15-18.06L61.15-18.06Q60.97-18.50 60.97-18.98L60.97-18.98L60.97-18.98Q60.97-19.47 61.15-19.91L61.15-19.91L61.15-19.91Q61.33-20.35 61.66-20.68L61.66-20.68L61.66-20.68Q61.98-21.02 62.42-21.20L62.42-21.20L62.42-21.20Q62.86-21.39 63.34-21.39L63.34-21.39L63.34-21.39Q63.82-21.39 64.26-21.20L64.26-21.20L64.26-21.20Q64.70-21.02 65.04-20.68L65.04-20.68L65.04-20.68Q65.38-20.35 65.56-19.91L65.56-19.91L65.56-19.91Q65.74-19.47 65.74-18.98L65.74-18.98L65.74-18.98Q65.74-18.50 65.56-18.06L65.56-18.06L65.56-18.06Q65.38-17.62 65.04-17.31L65.04-17.31L65.04-17.31Q64.70-16.99 64.26-16.81L64.26-16.81L64.26-16.81Q63.82-16.63 63.34-16.63L63.34-16.63ZM61.30 0.18L61.30 0.18Q59.87 0.18 59.03-0.67L59.03-0.67L59.03-0.67Q58.10-1.61 58.10-3.41L58.10-3.41L58.10-3.41Q58.10-4.26 58.33-5.38L58.33-5.38L60.37-15L64.69-15L62.53-4.80L62.53-4.80Q62.42-4.42 62.42-3.84L62.42-3.84L62.42-3.84Q62.42-3.22 62.70-2.97L62.70-2.97L62.70-2.97Q62.99-2.72 63.63-2.72L63.63-2.72L63.63-2.72Q64.07-2.72 64.49-2.92L64.49-2.92L64.49-2.92Q64.91-3.12 65.26-3.47L65.26-3.47L65.26-3.47Q65.98-4.19 66.34-5.38L66.34-5.38L67.60-5.38L67.60-5.38Q66.80-3.11 65.58-1.76L65.58-1.76L65.58-1.76Q64.56-0.66 63.27-0.18L63.27-0.18L63.27-0.18Q62.33 0.18 61.30 0.18L61.30 0.18ZM63.65 7.50L63.65 7.50Q62.97 7.50 62.34 7.27L62.34 7.27L62.34 7.27Q61.70 7.03 61.20 6.61L61.20 6.61L61.20 6.61Q60.69 6.15 60.40 5.56L60.40 5.56L60.40 5.56Q60.10 4.97 60.10 4.26L60.10 4.26L60.10 4.26Q60.10 3.25 60.49 2.53L60.49 2.53L60.49 2.53Q60.88 1.82 61.61 1.29L61.61 1.29L61.61 1.29Q62.26 0.83 63.11 0.49L63.11 0.49L63.11 0.49Q63.97 0.15 65.26-0.23L65.26-0.23L68.89-17.37L68.89-17.37Q69.45-20.23 71.22-21.53L71.22-21.53L71.22-21.53Q72.50-22.47 74.36-22.47L74.36-22.47L74.36-22.47Q75.03-22.47 75.67-22.24L75.67-22.24L75.67-22.24Q76.30-22.00 76.80-21.58L76.80-21.58L76.80-21.58Q77.31-21.12 77.60-20.53L77.60-20.53L77.60-20.53Q77.89-19.94 77.89-19.23L77.89-19.23L77.89-19.23Q77.89-18.53 77.80-18.00L77.80-18.00L76.39-18.00L76.39-18.00Q76.45-18.46 76.45-18.81L76.45-18.81L76.45-18.81Q76.45-19.31 76.12-19.57L76.12-19.57L76.12-19.57Q75.79-19.83 75.31-19.83L75.31-19.83L75.31-19.83Q74.71-19.83 74.18-19.37L74.18-19.37L74.18-19.37Q73.48-18.74 73.21-17.37L73.21-17.37L72.70-15L74.90-15L74.68-13.80L72.47-13.80L69.01 2.40L69.01 2.40Q68.44 5.26 66.74 6.56L66.74 6.56L66.74 6.56Q65.49 7.50 63.65 7.50L63.65 7.50ZM62.96 4.83L62.96 4.83Q63.49 4.83 63.91 4.34L63.91 4.34L63.91 4.34Q64.38 3.76 64.66 2.49L64.66 2.49L65.05 0.75L65.05 0.75Q63.46 1.27 62.70 1.92L62.70 1.92L62.70 1.92Q61.76 2.71 61.76 3.84L61.76 3.84L61.76 3.84Q61.76 4.23 62.09 4.50L62.09 4.50L62.09 4.50Q62.49 4.83 62.96 4.83L62.96 4.83ZM79.03 7.50L79.03 7.50Q78.33 7.50 77.72 7.32L77.72 7.32L77.72 7.32Q77.11 7.13 76.67 6.77L76.67 6.77L76.67 6.77Q76.20 6.40 75.94 5.85L75.94 5.85L75.94 5.85Q75.67 5.30 75.67 4.58L75.67 4.58L75.67 4.58Q75.67 2.89 77.27 1.67L77.27 1.67L77.27 1.67Q78.47 0.78 80.57 0.12L80.57 0.12L80.93-1.49L80.93-1.49Q80.05-0.53 79.03-0.13L79.03-0.13L79.03-0.13Q78.24 0.18 77.33 0.18L77.33 0.18L77.33 0.18Q75.89 0.18 75.06-0.67L75.06-0.67L75.06-0.67Q74.12-1.61 74.12-3.41L74.12-3.41L74.12-3.41Q74.12-4.26 74.36-5.38L74.36-5.38L76.39-15L80.71-15L78.56-4.80L78.56-4.80Q78.47-4.44 78.47-4.04L78.47-4.04L78.47-4.04Q78.47-3.47 78.66-3.13L78.66-3.13L78.66-3.13Q78.88-2.72 79.37-2.72L79.37-2.72L79.37-2.72Q80.16-2.72 80.79-3.43L80.79-3.43L80.79-3.43Q81.33-4.03 81.71-5.19L81.71-5.19L83.80-15L88.13-15L85.15-1.08L85.15-1.08Q86.57-1.55 87.42-2.49L87.42-2.49L87.42-2.49Q88.34-3.50 88.93-5.38L88.93-5.38L90.19-5.38L90.19-5.38Q89.38-2.71 87.79-1.26L87.79-1.26L87.79-1.26Q86.62-0.21 84.89 0.23L84.89 0.23L84.43 2.40L84.43 2.40Q83.86 5.27 82.15 6.56L82.15 6.56L82.15 6.56Q80.90 7.50 79.03 7.50L79.03 7.50ZM78.34 5.16L78.34 5.16Q78.79 5.16 79.31 4.50L79.31 4.50L79.31 4.50Q79.80 3.85 80.08 2.49L80.08 2.49L80.26 1.63L80.26 1.63Q78.90 2.14 78.22 2.67L78.22 2.67L78.22 2.67Q77.33 3.34 77.33 4.17L77.33 4.17L77.33 4.17Q77.33 4.57 77.58 4.83L77.58 4.83L77.58 4.83Q77.86 5.16 78.34 5.16L78.34 5.16Z" fill="#ffffff"></path></g></g><style>text {
  font-size: 64px;
  font-family: Arial Black;
  dominant-baseline: central;
  text-anchor: middle;
}</style></svg>